<svg width="807" height="149" viewBox="0 0 807 149" fill="none" xmlns="http://www.w3.org/2000/svg">
<rect width="115" height="115" transform="translate(1 1)" fill="#004787"/>
<path d="M2.40909 140V128.364H9.43182V129.614H3.81818V133.545H9.06818V134.795H3.81818V138.75H9.52273V140H2.40909ZM18.9261 131.273L15.6989 140H14.3352L11.108 131.273H12.5625L14.9716 138.227H15.0625L17.4716 131.273H18.9261ZM24.0426 140.182C23.2017 140.182 22.4763 139.996 21.8665 139.625C21.2604 139.25 20.7926 138.727 20.4631 138.057C20.1373 137.383 19.9744 136.598 19.9744 135.705C19.9744 134.811 20.1373 134.023 20.4631 133.341C20.7926 132.655 21.2509 132.121 21.8381 131.739C22.429 131.352 23.1184 131.159 23.9062 131.159C24.3608 131.159 24.8097 131.235 25.2528 131.386C25.696 131.538 26.0994 131.784 26.4631 132.125C26.8267 132.462 27.1165 132.909 27.3324 133.466C27.5483 134.023 27.6562 134.708 27.6562 135.523V136.091H20.929V134.932H26.2926C26.2926 134.439 26.1941 134 25.9972 133.614C25.804 133.227 25.5275 132.922 25.1676 132.699C24.8116 132.475 24.3911 132.364 23.9062 132.364C23.3722 132.364 22.91 132.496 22.5199 132.761C22.1335 133.023 21.8362 133.364 21.6278 133.784C21.4195 134.205 21.3153 134.655 21.3153 135.136V135.909C21.3153 136.568 21.429 137.127 21.6562 137.585C21.8873 138.04 22.2074 138.386 22.6165 138.625C23.0256 138.86 23.5009 138.977 24.0426 138.977C24.3949 138.977 24.7131 138.928 24.9972 138.83C25.285 138.727 25.5331 138.576 25.7415 138.375C25.9498 138.17 26.1108 137.917 26.2244 137.614L27.5199 137.977C27.3835 138.417 27.1544 138.803 26.8324 139.136C26.5104 139.466 26.1127 139.723 25.6392 139.909C25.1657 140.091 24.6335 140.182 24.0426 140.182ZM29.696 140V131.273H30.9915V132.591H31.0824C31.2415 132.159 31.5294 131.809 31.946 131.54C32.3627 131.271 32.8324 131.136 33.3551 131.136C33.4536 131.136 33.5767 131.138 33.7244 131.142C33.8722 131.146 33.9839 131.152 34.0597 131.159V132.523C34.0142 132.511 33.91 132.494 33.7472 132.472C33.5881 132.445 33.4195 132.432 33.2415 132.432C32.8172 132.432 32.4384 132.521 32.1051 132.699C31.7756 132.873 31.5142 133.116 31.321 133.426C31.1316 133.733 31.0369 134.083 31.0369 134.477V140H29.696ZM36.7784 143.273C36.5511 143.273 36.3485 143.254 36.1705 143.216C35.9924 143.182 35.8693 143.148 35.8011 143.114L36.142 141.932C36.4678 142.015 36.7557 142.045 37.0057 142.023C37.2557 142 37.4773 141.888 37.6705 141.688C37.8674 141.491 38.0473 141.17 38.2102 140.727L38.4602 140.045L35.233 131.273H36.6875L39.0966 138.227H39.1875L41.5966 131.273H43.0511L39.3466 141.273C39.1799 141.723 38.9735 142.097 38.7273 142.392C38.4811 142.691 38.1951 142.913 37.8693 143.057C37.5473 143.201 37.1837 143.273 36.7784 143.273ZM48.054 140.182C47.2661 140.182 46.5748 139.994 45.9801 139.619C45.3892 139.244 44.9271 138.72 44.5938 138.045C44.2642 137.371 44.0994 136.583 44.0994 135.682C44.0994 134.773 44.2642 133.979 44.5938 133.301C44.9271 132.623 45.3892 132.097 45.9801 131.722C46.5748 131.347 47.2661 131.159 48.054 131.159C48.8419 131.159 49.5313 131.347 50.1222 131.722C50.7169 132.097 51.179 132.623 51.5085 133.301C51.8419 133.979 52.0085 134.773 52.0085 135.682C52.0085 136.583 51.8419 137.371 51.5085 138.045C51.179 138.72 50.7169 139.244 50.1222 139.619C49.5313 139.994 48.8419 140.182 48.054 140.182ZM48.054 138.977C48.6525 138.977 49.1449 138.824 49.5312 138.517C49.9176 138.21 50.2036 137.807 50.3892 137.307C50.5748 136.807 50.6676 136.265 50.6676 135.682C50.6676 135.098 50.5748 134.555 50.3892 134.051C50.2036 133.547 49.9176 133.14 49.5312 132.83C49.1449 132.519 48.6525 132.364 48.054 132.364C47.4555 132.364 46.9631 132.519 46.5767 132.83C46.1903 133.14 45.9044 133.547 45.7188 134.051C45.5331 134.555 45.4403 135.098 45.4403 135.682C45.4403 136.265 45.5331 136.807 45.7188 137.307C45.9044 137.807 46.1903 138.21 46.5767 138.517C46.9631 138.824 47.4555 138.977 48.054 138.977ZM55.3963 134.75V140H54.0554V131.273H55.3509V132.636H55.4645C55.669 132.193 55.9796 131.837 56.3963 131.568C56.813 131.295 57.3509 131.159 58.0099 131.159C58.6009 131.159 59.1179 131.28 59.5611 131.523C60.0043 131.761 60.349 132.125 60.5952 132.614C60.8414 133.098 60.9645 133.712 60.9645 134.455V140H59.6236V134.545C59.6236 133.86 59.4455 133.326 59.0895 132.943C58.7334 132.557 58.2448 132.364 57.6236 132.364C57.1955 132.364 56.813 132.456 56.4759 132.642C56.1425 132.828 55.8793 133.098 55.6861 133.455C55.4929 133.811 55.3963 134.242 55.3963 134.75ZM67.0739 140.182C66.233 140.182 65.5076 139.996 64.8977 139.625C64.2917 139.25 63.8239 138.727 63.4943 138.057C63.1686 137.383 63.0057 136.598 63.0057 135.705C63.0057 134.811 63.1686 134.023 63.4943 133.341C63.8239 132.655 64.2822 132.121 64.8693 131.739C65.4602 131.352 66.1496 131.159 66.9375 131.159C67.392 131.159 67.8409 131.235 68.2841 131.386C68.7273 131.538 69.1307 131.784 69.4943 132.125C69.858 132.462 70.1477 132.909 70.3636 133.466C70.5795 134.023 70.6875 134.708 70.6875 135.523V136.091H63.9602V134.932H69.3239C69.3239 134.439 69.2254 134 69.0284 133.614C68.8352 133.227 68.5587 132.922 68.1989 132.699C67.8428 132.475 67.4223 132.364 66.9375 132.364C66.4034 132.364 65.9413 132.496 65.5511 132.761C65.1648 133.023 64.8674 133.364 64.6591 133.784C64.4508 134.205 64.3466 134.655 64.3466 135.136V135.909C64.3466 136.568 64.4602 137.127 64.6875 137.585C64.9186 138.04 65.2386 138.386 65.6477 138.625C66.0568 138.86 66.5322 138.977 67.0739 138.977C67.4261 138.977 67.7443 138.928 68.0284 138.83C68.3163 138.727 68.5644 138.576 68.7727 138.375C68.9811 138.17 69.142 137.917 69.2557 137.614L70.5511 137.977C70.4148 138.417 70.1856 138.803 69.8636 139.136C69.5417 139.466 69.1439 139.723 68.6705 139.909C68.197 140.091 67.6648 140.182 67.0739 140.182Z" fill="black"/>
<rect width="115" height="115" transform="translate(116 1)" fill="#005EB1"/>
<path d="M120.932 140.159C120.152 140.159 119.462 140.021 118.864 139.744C118.269 139.464 117.805 139.08 117.472 138.591C117.138 138.098 116.973 137.538 116.977 136.909C116.973 136.417 117.07 135.962 117.267 135.545C117.464 135.125 117.733 134.775 118.074 134.494C118.419 134.21 118.803 134.03 119.227 133.955V133.886C118.67 133.742 118.227 133.43 117.898 132.949C117.568 132.464 117.405 131.913 117.409 131.295C117.405 130.705 117.555 130.176 117.858 129.71C118.161 129.244 118.578 128.877 119.108 128.608C119.642 128.339 120.25 128.205 120.932 128.205C121.606 128.205 122.208 128.339 122.739 128.608C123.269 128.877 123.686 129.244 123.989 129.71C124.295 130.176 124.451 130.705 124.455 131.295C124.451 131.913 124.282 132.464 123.949 132.949C123.619 133.43 123.182 133.742 122.636 133.886V133.955C123.057 134.03 123.436 134.21 123.773 134.494C124.11 134.775 124.379 135.125 124.58 135.545C124.78 135.962 124.883 136.417 124.886 136.909C124.883 137.538 124.712 138.098 124.375 138.591C124.042 139.08 123.578 139.464 122.983 139.744C122.392 140.021 121.708 140.159 120.932 140.159ZM120.932 138.909C121.458 138.909 121.913 138.824 122.295 138.653C122.678 138.483 122.973 138.242 123.182 137.932C123.39 137.621 123.496 137.258 123.5 136.841C123.496 136.402 123.383 136.013 123.159 135.676C122.936 135.339 122.631 135.074 122.244 134.881C121.862 134.687 121.424 134.591 120.932 134.591C120.436 134.591 119.992 134.687 119.602 134.881C119.216 135.074 118.911 135.339 118.688 135.676C118.468 136.013 118.36 136.402 118.364 136.841C118.36 137.258 118.46 137.621 118.665 137.932C118.873 138.242 119.17 138.483 119.557 138.653C119.943 138.824 120.402 138.909 120.932 138.909ZM120.932 133.386C121.348 133.386 121.718 133.303 122.04 133.136C122.366 132.97 122.621 132.737 122.807 132.438C122.992 132.138 123.087 131.788 123.091 131.386C123.087 130.992 122.994 130.65 122.812 130.358C122.631 130.062 122.379 129.835 122.057 129.676C121.735 129.513 121.36 129.432 120.932 129.432C120.496 129.432 120.116 129.513 119.79 129.676C119.464 129.835 119.212 130.062 119.034 130.358C118.856 130.65 118.769 130.992 118.773 131.386C118.769 131.788 118.858 132.138 119.04 132.438C119.225 132.737 119.481 132.97 119.807 133.136C120.133 133.303 120.508 133.386 120.932 133.386ZM131.155 128.364V140H129.746V129.841H129.678L126.837 131.727V130.295L129.746 128.364H131.155ZM140.433 137.818V137.205C140.433 136.78 140.52 136.392 140.695 136.04C140.873 135.684 141.13 135.4 141.467 135.188C141.808 134.972 142.221 134.864 142.706 134.864C143.198 134.864 143.611 134.972 143.945 135.188C144.278 135.4 144.53 135.684 144.7 136.04C144.871 136.392 144.956 136.78 144.956 137.205V137.818C144.956 138.242 144.869 138.633 144.695 138.989C144.524 139.341 144.27 139.625 143.933 139.841C143.6 140.053 143.191 140.159 142.706 140.159C142.214 140.159 141.799 140.053 141.462 139.841C141.125 139.625 140.869 139.341 140.695 138.989C140.52 138.633 140.433 138.242 140.433 137.818ZM141.592 137.205V137.818C141.592 138.17 141.676 138.487 141.842 138.767C142.009 139.044 142.297 139.182 142.706 139.182C143.104 139.182 143.384 139.044 143.547 138.767C143.714 138.487 143.797 138.17 143.797 137.818V137.205C143.797 136.852 143.717 136.538 143.558 136.261C143.399 135.981 143.115 135.841 142.706 135.841C142.308 135.841 142.022 135.981 141.848 136.261C141.678 136.538 141.592 136.852 141.592 137.205ZM134.638 131.159V130.545C134.638 130.121 134.725 129.733 134.899 129.381C135.077 129.025 135.335 128.741 135.672 128.528C136.013 128.312 136.426 128.205 136.911 128.205C137.403 128.205 137.816 128.312 138.149 128.528C138.482 128.741 138.734 129.025 138.905 129.381C139.075 129.733 139.161 130.121 139.161 130.545V131.159C139.161 131.583 139.073 131.973 138.899 132.33C138.729 132.682 138.475 132.966 138.138 133.182C137.804 133.394 137.395 133.5 136.911 133.5C136.418 133.5 136.003 133.394 135.666 133.182C135.329 132.966 135.073 132.682 134.899 132.33C134.725 131.973 134.638 131.583 134.638 131.159ZM135.797 130.545V131.159C135.797 131.511 135.88 131.828 136.047 132.108C136.214 132.384 136.501 132.523 136.911 132.523C137.308 132.523 137.589 132.384 137.751 132.108C137.918 131.828 138.001 131.511 138.001 131.159V130.545C138.001 130.193 137.922 129.879 137.763 129.602C137.604 129.322 137.32 129.182 136.911 129.182C136.513 129.182 136.227 129.322 136.053 129.602C135.882 129.879 135.797 130.193 135.797 130.545ZM135.07 140L143.07 128.364H144.365L136.365 140H135.07ZM152.524 133.557V134.807H147.433V133.557H152.524ZM158.565 128.205C159.043 128.208 159.52 128.299 159.997 128.477C160.474 128.655 160.91 128.951 161.304 129.364C161.698 129.773 162.014 130.331 162.253 131.04C162.491 131.748 162.611 132.636 162.611 133.705C162.611 134.739 162.512 135.657 162.315 136.46C162.122 137.259 161.842 137.934 161.474 138.483C161.111 139.032 160.668 139.449 160.145 139.733C159.626 140.017 159.039 140.159 158.384 140.159C157.732 140.159 157.151 140.03 156.639 139.773C156.132 139.511 155.715 139.15 155.389 138.688C155.067 138.222 154.861 137.682 154.77 137.068H156.156C156.281 137.602 156.529 138.044 156.901 138.392C157.276 138.737 157.77 138.909 158.384 138.909C159.281 138.909 159.99 138.517 160.509 137.733C161.031 136.949 161.293 135.841 161.293 134.409H161.202C160.99 134.727 160.738 135.002 160.446 135.233C160.154 135.464 159.83 135.642 159.474 135.767C159.118 135.892 158.74 135.955 158.338 135.955C157.671 135.955 157.06 135.79 156.503 135.46C155.95 135.127 155.507 134.67 155.173 134.091C154.844 133.508 154.679 132.841 154.679 132.091C154.679 131.379 154.838 130.727 155.156 130.136C155.478 129.542 155.929 129.068 156.509 128.716C157.092 128.364 157.777 128.193 158.565 128.205ZM158.565 129.455C158.088 129.455 157.658 129.574 157.276 129.812C156.897 130.047 156.596 130.366 156.372 130.767C156.152 131.165 156.043 131.606 156.043 132.091C156.043 132.576 156.149 133.017 156.361 133.415C156.577 133.809 156.87 134.123 157.241 134.358C157.616 134.589 158.043 134.705 158.52 134.705C158.88 134.705 159.215 134.634 159.526 134.494C159.836 134.35 160.107 134.155 160.338 133.909C160.573 133.659 160.757 133.377 160.889 133.062C161.022 132.744 161.088 132.413 161.088 132.068C161.088 131.614 160.978 131.187 160.759 130.79C160.543 130.392 160.243 130.07 159.861 129.824C159.482 129.578 159.05 129.455 158.565 129.455ZM168.55 128.205C169.027 128.208 169.504 128.299 169.982 128.477C170.459 128.655 170.894 128.951 171.288 129.364C171.682 129.773 171.999 130.331 172.237 131.04C172.476 131.748 172.595 132.636 172.595 133.705C172.595 134.739 172.497 135.657 172.3 136.46C172.107 137.259 171.826 137.934 171.459 138.483C171.095 139.032 170.652 139.449 170.129 139.733C169.61 140.017 169.023 140.159 168.368 140.159C167.716 140.159 167.135 140.03 166.624 139.773C166.116 139.511 165.699 139.15 165.374 138.688C165.052 138.222 164.845 137.682 164.754 137.068H166.141C166.266 137.602 166.514 138.044 166.885 138.392C167.26 138.737 167.754 138.909 168.368 138.909C169.266 138.909 169.974 138.517 170.493 137.733C171.016 136.949 171.277 135.841 171.277 134.409H171.186C170.974 134.727 170.722 135.002 170.43 135.233C170.139 135.464 169.815 135.642 169.459 135.767C169.103 135.892 168.724 135.955 168.322 135.955C167.656 135.955 167.044 135.79 166.487 135.46C165.934 135.127 165.491 134.67 165.158 134.091C164.828 133.508 164.663 132.841 164.663 132.091C164.663 131.379 164.822 130.727 165.141 130.136C165.463 129.542 165.913 129.068 166.493 128.716C167.076 128.364 167.762 128.193 168.55 128.205ZM168.55 129.455C168.072 129.455 167.643 129.574 167.26 129.812C166.881 130.047 166.58 130.366 166.357 130.767C166.137 131.165 166.027 131.606 166.027 132.091C166.027 132.576 166.133 133.017 166.345 133.415C166.561 133.809 166.855 134.123 167.226 134.358C167.601 134.589 168.027 134.705 168.504 134.705C168.864 134.705 169.199 134.634 169.51 134.494C169.821 134.35 170.091 134.155 170.322 133.909C170.557 133.659 170.741 133.377 170.874 133.062C171.006 132.744 171.072 132.413 171.072 132.068C171.072 131.614 170.963 131.187 170.743 130.79C170.527 130.392 170.228 130.07 169.845 129.824C169.466 129.578 169.035 129.455 168.55 129.455ZM180.761 137.818V137.205C180.761 136.78 180.848 136.392 181.023 136.04C181.201 135.684 181.458 135.4 181.795 135.188C182.136 134.972 182.549 134.864 183.034 134.864C183.527 134.864 183.939 134.972 184.273 135.188C184.606 135.4 184.858 135.684 185.028 136.04C185.199 136.392 185.284 136.78 185.284 137.205V137.818C185.284 138.242 185.197 138.633 185.023 138.989C184.852 139.341 184.598 139.625 184.261 139.841C183.928 140.053 183.519 140.159 183.034 140.159C182.542 140.159 182.127 140.053 181.79 139.841C181.453 139.625 181.197 139.341 181.023 138.989C180.848 138.633 180.761 138.242 180.761 137.818ZM181.92 137.205V137.818C181.92 138.17 182.004 138.487 182.17 138.767C182.337 139.044 182.625 139.182 183.034 139.182C183.432 139.182 183.712 139.044 183.875 138.767C184.042 138.487 184.125 138.17 184.125 137.818V137.205C184.125 136.852 184.045 136.538 183.886 136.261C183.727 135.981 183.443 135.841 183.034 135.841C182.636 135.841 182.35 135.981 182.176 136.261C182.006 136.538 181.92 136.852 181.92 137.205ZM174.966 131.159V130.545C174.966 130.121 175.053 129.733 175.227 129.381C175.405 129.025 175.663 128.741 176 128.528C176.341 128.312 176.754 128.205 177.239 128.205C177.731 128.205 178.144 128.312 178.477 128.528C178.811 128.741 179.063 129.025 179.233 129.381C179.403 129.733 179.489 130.121 179.489 130.545V131.159C179.489 131.583 179.402 131.973 179.227 132.33C179.057 132.682 178.803 132.966 178.466 133.182C178.133 133.394 177.723 133.5 177.239 133.5C176.746 133.5 176.331 133.394 175.994 133.182C175.657 132.966 175.402 132.682 175.227 132.33C175.053 131.973 174.966 131.583 174.966 131.159ZM176.125 130.545V131.159C176.125 131.511 176.208 131.828 176.375 132.108C176.542 132.384 176.83 132.523 177.239 132.523C177.636 132.523 177.917 132.384 178.08 132.108C178.246 131.828 178.33 131.511 178.33 131.159V130.545C178.33 130.193 178.25 129.879 178.091 129.602C177.932 129.322 177.648 129.182 177.239 129.182C176.841 129.182 176.555 129.322 176.381 129.602C176.21 129.879 176.125 130.193 176.125 130.545ZM175.398 140L183.398 128.364H184.693L176.693 140H175.398Z" fill="black"/>
<rect width="115" height="115" transform="translate(231 1)" fill="#2678D2"/>
<path d="M236.068 140.159C235.591 140.152 235.114 140.061 234.636 139.886C234.159 139.712 233.723 139.419 233.33 139.006C232.936 138.589 232.619 138.027 232.381 137.318C232.142 136.606 232.023 135.712 232.023 134.636C232.023 133.606 232.119 132.693 232.312 131.898C232.506 131.098 232.786 130.426 233.153 129.881C233.521 129.331 233.964 128.915 234.483 128.631C235.006 128.347 235.595 128.205 236.25 128.205C236.902 128.205 237.481 128.335 237.989 128.597C238.5 128.854 238.917 129.214 239.239 129.676C239.561 130.138 239.769 130.67 239.864 131.273H238.477C238.348 130.75 238.098 130.316 237.727 129.972C237.356 129.627 236.864 129.455 236.25 129.455C235.348 129.455 234.638 129.847 234.119 130.631C233.604 131.415 233.345 132.515 233.341 133.932H233.432C233.644 133.61 233.896 133.335 234.188 133.108C234.483 132.877 234.809 132.699 235.165 132.574C235.521 132.449 235.898 132.386 236.295 132.386C236.962 132.386 237.572 132.553 238.125 132.886C238.678 133.216 239.121 133.672 239.455 134.256C239.788 134.835 239.955 135.5 239.955 136.25C239.955 136.97 239.794 137.629 239.472 138.227C239.15 138.822 238.697 139.295 238.114 139.648C237.534 139.996 236.852 140.167 236.068 140.159ZM236.068 138.909C236.545 138.909 236.973 138.79 237.352 138.551C237.735 138.312 238.036 137.992 238.256 137.591C238.479 137.189 238.591 136.742 238.591 136.25C238.591 135.769 238.483 135.331 238.267 134.938C238.055 134.54 237.761 134.223 237.386 133.989C237.015 133.754 236.591 133.636 236.114 133.636C235.754 133.636 235.419 133.708 235.108 133.852C234.797 133.992 234.525 134.186 234.29 134.432C234.059 134.678 233.877 134.96 233.744 135.278C233.612 135.593 233.545 135.924 233.545 136.273C233.545 136.735 233.653 137.167 233.869 137.568C234.089 137.97 234.388 138.294 234.767 138.54C235.15 138.786 235.583 138.909 236.068 138.909ZM246.28 128.364V140H244.871V129.841H244.803L241.962 131.727V130.295L244.871 128.364H246.28ZM255.558 137.818V137.205C255.558 136.78 255.645 136.392 255.82 136.04C255.998 135.684 256.255 135.4 256.592 135.188C256.933 134.972 257.346 134.864 257.831 134.864C258.323 134.864 258.736 134.972 259.07 135.188C259.403 135.4 259.655 135.684 259.825 136.04C259.996 136.392 260.081 136.78 260.081 137.205V137.818C260.081 138.242 259.994 138.633 259.82 138.989C259.649 139.341 259.395 139.625 259.058 139.841C258.725 140.053 258.316 140.159 257.831 140.159C257.339 140.159 256.924 140.053 256.587 139.841C256.25 139.625 255.994 139.341 255.82 138.989C255.645 138.633 255.558 138.242 255.558 137.818ZM256.717 137.205V137.818C256.717 138.17 256.801 138.487 256.967 138.767C257.134 139.044 257.422 139.182 257.831 139.182C258.229 139.182 258.509 139.044 258.672 138.767C258.839 138.487 258.922 138.17 258.922 137.818V137.205C258.922 136.852 258.842 136.538 258.683 136.261C258.524 135.981 258.24 135.841 257.831 135.841C257.433 135.841 257.147 135.981 256.973 136.261C256.803 136.538 256.717 136.852 256.717 137.205ZM249.763 131.159V130.545C249.763 130.121 249.85 129.733 250.024 129.381C250.202 129.025 250.46 128.741 250.797 128.528C251.138 128.312 251.551 128.205 252.036 128.205C252.528 128.205 252.941 128.312 253.274 128.528C253.607 128.741 253.859 129.025 254.03 129.381C254.2 129.733 254.286 130.121 254.286 130.545V131.159C254.286 131.583 254.198 131.973 254.024 132.33C253.854 132.682 253.6 132.966 253.263 133.182C252.929 133.394 252.52 133.5 252.036 133.5C251.543 133.5 251.128 133.394 250.791 133.182C250.454 132.966 250.198 132.682 250.024 132.33C249.85 131.973 249.763 131.583 249.763 131.159ZM250.922 130.545V131.159C250.922 131.511 251.005 131.828 251.172 132.108C251.339 132.384 251.626 132.523 252.036 132.523C252.433 132.523 252.714 132.384 252.876 132.108C253.043 131.828 253.126 131.511 253.126 131.159V130.545C253.126 130.193 253.047 129.879 252.888 129.602C252.729 129.322 252.445 129.182 252.036 129.182C251.638 129.182 251.352 129.322 251.178 129.602C251.007 129.879 250.922 130.193 250.922 130.545ZM250.195 140L258.195 128.364H259.49L251.49 140H250.195ZM267.649 133.557V134.807H262.558V133.557H267.649ZM273.713 140.159C272.933 140.159 272.243 140.021 271.645 139.744C271.05 139.464 270.586 139.08 270.253 138.591C269.92 138.098 269.755 137.538 269.759 136.909C269.755 136.417 269.851 135.962 270.048 135.545C270.245 135.125 270.514 134.775 270.855 134.494C271.2 134.21 271.584 134.03 272.009 133.955V133.886C271.452 133.742 271.009 133.43 270.679 132.949C270.349 132.464 270.187 131.913 270.19 131.295C270.187 130.705 270.336 130.176 270.639 129.71C270.942 129.244 271.359 128.877 271.889 128.608C272.423 128.339 273.031 128.205 273.713 128.205C274.387 128.205 274.99 128.339 275.52 128.608C276.05 128.877 276.467 129.244 276.77 129.71C277.077 130.176 277.232 130.705 277.236 131.295C277.232 131.913 277.063 132.464 276.73 132.949C276.401 133.43 275.963 133.742 275.418 133.886V133.955C275.838 134.03 276.217 134.21 276.554 134.494C276.891 134.775 277.16 135.125 277.361 135.545C277.562 135.962 277.664 136.417 277.668 136.909C277.664 137.538 277.493 138.098 277.156 138.591C276.823 139.08 276.359 139.464 275.764 139.744C275.173 140.021 274.49 140.159 273.713 140.159ZM273.713 138.909C274.24 138.909 274.694 138.824 275.077 138.653C275.459 138.483 275.755 138.242 275.963 137.932C276.171 137.621 276.277 137.258 276.281 136.841C276.277 136.402 276.164 136.013 275.94 135.676C275.717 135.339 275.412 135.074 275.026 134.881C274.643 134.687 274.205 134.591 273.713 134.591C273.217 134.591 272.774 134.687 272.384 134.881C271.997 135.074 271.692 135.339 271.469 135.676C271.249 136.013 271.141 136.402 271.145 136.841C271.141 137.258 271.241 137.621 271.446 137.932C271.654 138.242 271.952 138.483 272.338 138.653C272.724 138.824 273.183 138.909 273.713 138.909ZM273.713 133.386C274.13 133.386 274.499 133.303 274.821 133.136C275.147 132.97 275.402 132.737 275.588 132.438C275.774 132.138 275.868 131.788 275.872 131.386C275.868 130.992 275.776 130.65 275.594 130.358C275.412 130.062 275.16 129.835 274.838 129.676C274.516 129.513 274.141 129.432 273.713 129.432C273.277 129.432 272.897 129.513 272.571 129.676C272.245 129.835 271.993 130.062 271.815 130.358C271.637 130.65 271.55 130.992 271.554 131.386C271.55 131.788 271.639 132.138 271.821 132.438C272.007 132.737 272.262 132.97 272.588 133.136C272.914 133.303 273.289 133.386 273.713 133.386ZM283.641 140.159C282.785 140.159 282.055 139.926 281.453 139.46C280.851 138.991 280.391 138.311 280.072 137.42C279.754 136.527 279.595 135.447 279.595 134.182C279.595 132.924 279.754 131.85 280.072 130.96C280.394 130.066 280.857 129.384 281.459 128.915C282.065 128.441 282.792 128.205 283.641 128.205C284.489 128.205 285.214 128.441 285.817 128.915C286.423 129.384 286.885 130.066 287.203 130.96C287.525 131.85 287.686 132.924 287.686 134.182C287.686 135.447 287.527 136.527 287.209 137.42C286.891 138.311 286.43 138.991 285.828 139.46C285.226 139.926 284.497 140.159 283.641 140.159ZM283.641 138.909C284.489 138.909 285.148 138.5 285.618 137.682C286.088 136.864 286.322 135.697 286.322 134.182C286.322 133.174 286.214 132.316 285.999 131.608C285.786 130.9 285.48 130.36 285.078 129.989C284.68 129.617 284.201 129.432 283.641 129.432C282.8 129.432 282.143 129.847 281.669 130.676C281.196 131.502 280.959 132.67 280.959 134.182C280.959 135.189 281.065 136.045 281.277 136.75C281.489 137.455 281.794 137.991 282.192 138.358C282.593 138.725 283.076 138.909 283.641 138.909ZM295.777 137.818V137.205C295.777 136.78 295.864 136.392 296.038 136.04C296.216 135.684 296.474 135.4 296.811 135.188C297.152 134.972 297.565 134.864 298.05 134.864C298.542 134.864 298.955 134.972 299.288 135.188C299.622 135.4 299.874 135.684 300.044 136.04C300.214 136.392 300.3 136.78 300.3 137.205V137.818C300.3 138.242 300.213 138.633 300.038 138.989C299.868 139.341 299.614 139.625 299.277 139.841C298.944 140.053 298.535 140.159 298.05 140.159C297.557 140.159 297.143 140.053 296.805 139.841C296.468 139.625 296.213 139.341 296.038 138.989C295.864 138.633 295.777 138.242 295.777 137.818ZM296.936 137.205V137.818C296.936 138.17 297.019 138.487 297.186 138.767C297.353 139.044 297.641 139.182 298.05 139.182C298.447 139.182 298.728 139.044 298.891 138.767C299.057 138.487 299.141 138.17 299.141 137.818V137.205C299.141 136.852 299.061 136.538 298.902 136.261C298.743 135.981 298.459 135.841 298.05 135.841C297.652 135.841 297.366 135.981 297.192 136.261C297.021 136.538 296.936 136.852 296.936 137.205ZM289.982 131.159V130.545C289.982 130.121 290.069 129.733 290.243 129.381C290.421 129.025 290.679 128.741 291.016 128.528C291.357 128.312 291.769 128.205 292.254 128.205C292.747 128.205 293.16 128.312 293.493 128.528C293.826 128.741 294.078 129.025 294.249 129.381C294.419 129.733 294.504 130.121 294.504 130.545V131.159C294.504 131.583 294.417 131.973 294.243 132.33C294.072 132.682 293.819 132.966 293.482 133.182C293.148 133.394 292.739 133.5 292.254 133.5C291.762 133.5 291.347 133.394 291.01 133.182C290.673 132.966 290.417 132.682 290.243 132.33C290.069 131.973 289.982 131.583 289.982 131.159ZM291.141 130.545V131.159C291.141 131.511 291.224 131.828 291.391 132.108C291.557 132.384 291.845 132.523 292.254 132.523C292.652 132.523 292.932 132.384 293.095 132.108C293.262 131.828 293.345 131.511 293.345 131.159V130.545C293.345 130.193 293.266 129.879 293.107 129.602C292.947 129.322 292.663 129.182 292.254 129.182C291.857 129.182 291.571 129.322 291.396 129.602C291.226 129.879 291.141 130.193 291.141 130.545ZM290.413 140L298.413 128.364H299.709L291.709 140H290.413Z" fill="black"/>
<rect width="115" height="115" transform="translate(346 1)" fill="#4A92EE"/>
<path d="M346.932 137.614V136.455L352.045 128.364H352.886V130.159H352.318L348.455 136.273V136.364H355.341V137.614H346.932ZM352.409 140V137.261V136.722V128.364H353.75V140H352.409ZM361.405 128.364V140H359.996V129.841H359.928L357.087 131.727V130.295L359.996 128.364H361.405ZM370.683 137.818V137.205C370.683 136.78 370.77 136.392 370.945 136.04C371.123 135.684 371.38 135.4 371.717 135.188C372.058 134.972 372.471 134.864 372.956 134.864C373.448 134.864 373.861 134.972 374.195 135.188C374.528 135.4 374.78 135.684 374.95 136.04C375.121 136.392 375.206 136.78 375.206 137.205V137.818C375.206 138.242 375.119 138.633 374.945 138.989C374.774 139.341 374.52 139.625 374.183 139.841C373.85 140.053 373.441 140.159 372.956 140.159C372.464 140.159 372.049 140.053 371.712 139.841C371.375 139.625 371.119 139.341 370.945 138.989C370.77 138.633 370.683 138.242 370.683 137.818ZM371.842 137.205V137.818C371.842 138.17 371.926 138.487 372.092 138.767C372.259 139.044 372.547 139.182 372.956 139.182C373.354 139.182 373.634 139.044 373.797 138.767C373.964 138.487 374.047 138.17 374.047 137.818V137.205C374.047 136.852 373.967 136.538 373.808 136.261C373.649 135.981 373.365 135.841 372.956 135.841C372.558 135.841 372.272 135.981 372.098 136.261C371.928 136.538 371.842 136.852 371.842 137.205ZM364.888 131.159V130.545C364.888 130.121 364.975 129.733 365.149 129.381C365.327 129.025 365.585 128.741 365.922 128.528C366.263 128.312 366.676 128.205 367.161 128.205C367.653 128.205 368.066 128.312 368.399 128.528C368.732 128.741 368.984 129.025 369.155 129.381C369.325 129.733 369.411 130.121 369.411 130.545V131.159C369.411 131.583 369.323 131.973 369.149 132.33C368.979 132.682 368.725 132.966 368.388 133.182C368.054 133.394 367.645 133.5 367.161 133.5C366.668 133.5 366.253 133.394 365.916 133.182C365.579 132.966 365.323 132.682 365.149 132.33C364.975 131.973 364.888 131.583 364.888 131.159ZM366.047 130.545V131.159C366.047 131.511 366.13 131.828 366.297 132.108C366.464 132.384 366.751 132.523 367.161 132.523C367.558 132.523 367.839 132.384 368.001 132.108C368.168 131.828 368.251 131.511 368.251 131.159V130.545C368.251 130.193 368.172 129.879 368.013 129.602C367.854 129.322 367.57 129.182 367.161 129.182C366.763 129.182 366.477 129.322 366.303 129.602C366.132 129.879 366.047 130.193 366.047 130.545ZM365.32 140L373.32 128.364H374.615L366.615 140H365.32ZM387.274 133.557V134.807H382.183V133.557H387.274ZM397.974 140.159C397.497 140.152 397.02 140.061 396.543 139.886C396.065 139.712 395.63 139.419 395.236 139.006C394.842 138.589 394.526 138.027 394.287 137.318C394.048 136.606 393.929 135.712 393.929 134.636C393.929 133.606 394.026 132.693 394.219 131.898C394.412 131.098 394.692 130.426 395.06 129.881C395.427 129.331 395.87 128.915 396.389 128.631C396.912 128.347 397.501 128.205 398.156 128.205C398.808 128.205 399.387 128.335 399.895 128.597C400.406 128.854 400.823 129.214 401.145 129.676C401.467 130.138 401.675 130.67 401.77 131.273H400.384C400.255 130.75 400.005 130.316 399.634 129.972C399.262 129.627 398.77 129.455 398.156 129.455C397.255 129.455 396.545 129.847 396.026 130.631C395.51 131.415 395.251 132.515 395.247 133.932H395.338C395.55 133.61 395.802 133.335 396.094 133.108C396.389 132.877 396.715 132.699 397.071 132.574C397.427 132.449 397.804 132.386 398.202 132.386C398.868 132.386 399.478 132.553 400.031 132.886C400.584 133.216 401.027 133.672 401.361 134.256C401.694 134.835 401.861 135.5 401.861 136.25C401.861 136.97 401.7 137.629 401.378 138.227C401.056 138.822 400.603 139.295 400.02 139.648C399.44 139.996 398.759 140.167 397.974 140.159ZM397.974 138.909C398.452 138.909 398.88 138.79 399.259 138.551C399.641 138.312 399.942 137.992 400.162 137.591C400.385 137.189 400.497 136.742 400.497 136.25C400.497 135.769 400.389 135.331 400.173 134.938C399.961 134.54 399.668 134.223 399.293 133.989C398.921 133.754 398.497 133.636 398.02 133.636C397.66 133.636 397.325 133.708 397.014 133.852C396.704 133.992 396.431 134.186 396.196 134.432C395.965 134.678 395.783 134.96 395.651 135.278C395.518 135.593 395.452 135.924 395.452 136.273C395.452 136.735 395.56 137.167 395.776 137.568C395.995 137.97 396.295 138.294 396.673 138.54C397.056 138.786 397.49 138.909 397.974 138.909ZM407.891 140.159C407.035 140.159 406.305 139.926 405.703 139.46C405.101 138.991 404.641 138.311 404.322 137.42C404.004 136.527 403.845 135.447 403.845 134.182C403.845 132.924 404.004 131.85 404.322 130.96C404.644 130.066 405.107 129.384 405.709 128.915C406.315 128.441 407.042 128.205 407.891 128.205C408.739 128.205 409.464 128.441 410.067 128.915C410.673 129.384 411.135 130.066 411.453 130.96C411.775 131.85 411.936 132.924 411.936 134.182C411.936 135.447 411.777 136.527 411.459 137.42C411.141 138.311 410.68 138.991 410.078 139.46C409.476 139.926 408.747 140.159 407.891 140.159ZM407.891 138.909C408.739 138.909 409.398 138.5 409.868 137.682C410.338 136.864 410.572 135.697 410.572 134.182C410.572 133.174 410.464 132.316 410.249 131.608C410.036 130.9 409.73 130.36 409.328 129.989C408.93 129.617 408.451 129.432 407.891 129.432C407.05 129.432 406.393 129.847 405.919 130.676C405.446 131.502 405.209 132.67 405.209 134.182C405.209 135.189 405.315 136.045 405.527 136.75C405.739 137.455 406.044 137.991 406.442 138.358C406.843 138.725 407.326 138.909 407.891 138.909ZM420.027 137.818V137.205C420.027 136.78 420.114 136.392 420.288 136.04C420.466 135.684 420.724 135.4 421.061 135.188C421.402 134.972 421.815 134.864 422.3 134.864C422.792 134.864 423.205 134.972 423.538 135.188C423.872 135.4 424.124 135.684 424.294 136.04C424.464 136.392 424.55 136.78 424.55 137.205V137.818C424.55 138.242 424.463 138.633 424.288 138.989C424.118 139.341 423.864 139.625 423.527 139.841C423.194 140.053 422.785 140.159 422.3 140.159C421.807 140.159 421.393 140.053 421.055 139.841C420.718 139.625 420.463 139.341 420.288 138.989C420.114 138.633 420.027 138.242 420.027 137.818ZM421.186 137.205V137.818C421.186 138.17 421.269 138.487 421.436 138.767C421.603 139.044 421.891 139.182 422.3 139.182C422.697 139.182 422.978 139.044 423.141 138.767C423.307 138.487 423.391 138.17 423.391 137.818V137.205C423.391 136.852 423.311 136.538 423.152 136.261C422.993 135.981 422.709 135.841 422.3 135.841C421.902 135.841 421.616 135.981 421.442 136.261C421.271 136.538 421.186 136.852 421.186 137.205ZM414.232 131.159V130.545C414.232 130.121 414.319 129.733 414.493 129.381C414.671 129.025 414.929 128.741 415.266 128.528C415.607 128.312 416.019 128.205 416.504 128.205C416.997 128.205 417.41 128.312 417.743 128.528C418.076 128.741 418.328 129.025 418.499 129.381C418.669 129.733 418.754 130.121 418.754 130.545V131.159C418.754 131.583 418.667 131.973 418.493 132.33C418.322 132.682 418.069 132.966 417.732 133.182C417.398 133.394 416.989 133.5 416.504 133.5C416.012 133.5 415.597 133.394 415.26 133.182C414.923 132.966 414.667 132.682 414.493 132.33C414.319 131.973 414.232 131.583 414.232 131.159ZM415.391 130.545V131.159C415.391 131.511 415.474 131.828 415.641 132.108C415.807 132.384 416.095 132.523 416.504 132.523C416.902 132.523 417.182 132.384 417.345 132.108C417.512 131.828 417.595 131.511 417.595 131.159V130.545C417.595 130.193 417.516 129.879 417.357 129.602C417.197 129.322 416.913 129.182 416.504 129.182C416.107 129.182 415.821 129.322 415.646 129.602C415.476 129.879 415.391 130.193 415.391 130.545ZM414.663 140L422.663 128.364H423.959L415.959 140H414.663Z" fill="black"/>
<rect width="115" height="115" transform="translate(461 1)" fill="#74ADFF"/>
<path d="M462.205 140V138.977L466.045 134.773C466.496 134.28 466.867 133.852 467.159 133.489C467.451 133.121 467.667 132.777 467.807 132.455C467.951 132.129 468.023 131.788 468.023 131.432C468.023 131.023 467.924 130.669 467.727 130.369C467.534 130.07 467.269 129.839 466.932 129.676C466.595 129.513 466.216 129.432 465.795 129.432C465.348 129.432 464.958 129.525 464.625 129.71C464.295 129.892 464.04 130.148 463.858 130.477C463.68 130.807 463.591 131.193 463.591 131.636H462.25C462.25 130.955 462.407 130.356 462.722 129.841C463.036 129.326 463.464 128.924 464.006 128.636C464.551 128.348 465.163 128.205 465.841 128.205C466.523 128.205 467.127 128.348 467.653 128.636C468.18 128.924 468.593 129.312 468.892 129.801C469.191 130.29 469.341 130.833 469.341 131.432C469.341 131.86 469.263 132.278 469.108 132.688C468.956 133.093 468.691 133.545 468.312 134.045C467.938 134.542 467.417 135.148 466.75 135.864L464.136 138.659V138.75H469.545V140H462.205ZM475.983 128.364V140H474.574V129.841H474.506L471.665 131.727V130.295L474.574 128.364H475.983ZM485.261 137.818V137.205C485.261 136.78 485.348 136.392 485.523 136.04C485.701 135.684 485.958 135.4 486.295 135.188C486.636 134.972 487.049 134.864 487.534 134.864C488.027 134.864 488.439 134.972 488.773 135.188C489.106 135.4 489.358 135.684 489.528 136.04C489.699 136.392 489.784 136.78 489.784 137.205V137.818C489.784 138.242 489.697 138.633 489.523 138.989C489.352 139.341 489.098 139.625 488.761 139.841C488.428 140.053 488.019 140.159 487.534 140.159C487.042 140.159 486.627 140.053 486.29 139.841C485.953 139.625 485.697 139.341 485.523 138.989C485.348 138.633 485.261 138.242 485.261 137.818ZM486.42 137.205V137.818C486.42 138.17 486.504 138.487 486.67 138.767C486.837 139.044 487.125 139.182 487.534 139.182C487.932 139.182 488.212 139.044 488.375 138.767C488.542 138.487 488.625 138.17 488.625 137.818V137.205C488.625 136.852 488.545 136.538 488.386 136.261C488.227 135.981 487.943 135.841 487.534 135.841C487.136 135.841 486.85 135.981 486.676 136.261C486.506 136.538 486.42 136.852 486.42 137.205ZM479.466 131.159V130.545C479.466 130.121 479.553 129.733 479.727 129.381C479.905 129.025 480.163 128.741 480.5 128.528C480.841 128.312 481.254 128.205 481.739 128.205C482.231 128.205 482.644 128.312 482.977 128.528C483.311 128.741 483.563 129.025 483.733 129.381C483.903 129.733 483.989 130.121 483.989 130.545V131.159C483.989 131.583 483.902 131.973 483.727 132.33C483.557 132.682 483.303 132.966 482.966 133.182C482.633 133.394 482.223 133.5 481.739 133.5C481.246 133.5 480.831 133.394 480.494 133.182C480.157 132.966 479.902 132.682 479.727 132.33C479.553 131.973 479.466 131.583 479.466 131.159ZM480.625 130.545V131.159C480.625 131.511 480.708 131.828 480.875 132.108C481.042 132.384 481.33 132.523 481.739 132.523C482.136 132.523 482.417 132.384 482.58 132.108C482.746 131.828 482.83 131.511 482.83 131.159V130.545C482.83 130.193 482.75 129.879 482.591 129.602C482.432 129.322 482.148 129.182 481.739 129.182C481.341 129.182 481.055 129.322 480.881 129.602C480.71 129.879 480.625 130.193 480.625 130.545ZM479.898 140L487.898 128.364H489.193L481.193 140H479.898ZM501.852 133.557V134.807H496.761V133.557H501.852ZM508.416 137.614V136.455L513.53 128.364H514.371V130.159H513.803L509.939 136.273V136.364H516.825V137.614H508.416ZM513.893 140V137.261V136.722V128.364H515.234V140H513.893ZM522.75 140.159C521.894 140.159 521.165 139.926 520.562 139.46C519.96 138.991 519.5 138.311 519.182 137.42C518.864 136.527 518.705 135.447 518.705 134.182C518.705 132.924 518.864 131.85 519.182 130.96C519.504 130.066 519.966 129.384 520.568 128.915C521.174 128.441 521.902 128.205 522.75 128.205C523.598 128.205 524.324 128.441 524.926 128.915C525.532 129.384 525.994 130.066 526.312 130.96C526.634 131.85 526.795 132.924 526.795 134.182C526.795 135.447 526.636 136.527 526.318 137.42C526 138.311 525.54 138.991 524.938 139.46C524.335 139.926 523.606 140.159 522.75 140.159ZM522.75 138.909C523.598 138.909 524.258 138.5 524.727 137.682C525.197 136.864 525.432 135.697 525.432 134.182C525.432 133.174 525.324 132.316 525.108 131.608C524.896 130.9 524.589 130.36 524.188 129.989C523.79 129.617 523.311 129.432 522.75 129.432C521.909 129.432 521.252 129.847 520.778 130.676C520.305 131.502 520.068 132.67 520.068 134.182C520.068 135.189 520.174 136.045 520.386 136.75C520.598 137.455 520.903 137.991 521.301 138.358C521.703 138.725 522.186 138.909 522.75 138.909ZM534.886 137.818V137.205C534.886 136.78 534.973 136.392 535.148 136.04C535.326 135.684 535.583 135.4 535.92 135.188C536.261 134.972 536.674 134.864 537.159 134.864C537.652 134.864 538.064 134.972 538.398 135.188C538.731 135.4 538.983 135.684 539.153 136.04C539.324 136.392 539.409 136.78 539.409 137.205V137.818C539.409 138.242 539.322 138.633 539.148 138.989C538.977 139.341 538.723 139.625 538.386 139.841C538.053 140.053 537.644 140.159 537.159 140.159C536.667 140.159 536.252 140.053 535.915 139.841C535.578 139.625 535.322 139.341 535.148 138.989C534.973 138.633 534.886 138.242 534.886 137.818ZM536.045 137.205V137.818C536.045 138.17 536.129 138.487 536.295 138.767C536.462 139.044 536.75 139.182 537.159 139.182C537.557 139.182 537.837 139.044 538 138.767C538.167 138.487 538.25 138.17 538.25 137.818V137.205C538.25 136.852 538.17 136.538 538.011 136.261C537.852 135.981 537.568 135.841 537.159 135.841C536.761 135.841 536.475 135.981 536.301 136.261C536.131 136.538 536.045 136.852 536.045 137.205ZM529.091 131.159V130.545C529.091 130.121 529.178 129.733 529.352 129.381C529.53 129.025 529.788 128.741 530.125 128.528C530.466 128.312 530.879 128.205 531.364 128.205C531.856 128.205 532.269 128.312 532.602 128.528C532.936 128.741 533.188 129.025 533.358 129.381C533.528 129.733 533.614 130.121 533.614 130.545V131.159C533.614 131.583 533.527 131.973 533.352 132.33C533.182 132.682 532.928 132.966 532.591 133.182C532.258 133.394 531.848 133.5 531.364 133.5C530.871 133.5 530.456 133.394 530.119 133.182C529.782 132.966 529.527 132.682 529.352 132.33C529.178 131.973 529.091 131.583 529.091 131.159ZM530.25 130.545V131.159C530.25 131.511 530.333 131.828 530.5 132.108C530.667 132.384 530.955 132.523 531.364 132.523C531.761 132.523 532.042 132.384 532.205 132.108C532.371 131.828 532.455 131.511 532.455 131.159V130.545C532.455 130.193 532.375 129.879 532.216 129.602C532.057 129.322 531.773 129.182 531.364 129.182C530.966 129.182 530.68 129.322 530.506 129.602C530.335 129.879 530.25 130.193 530.25 130.545ZM529.523 140L537.523 128.364H538.818L530.818 140H529.523Z" fill="black"/>
<rect width="115" height="115" transform="translate(576 1)" fill="#A6C8FF"/>
<path d="M581.295 128.364V140H579.886V129.841H579.818L576.977 131.727V130.295L579.886 128.364H581.295ZM590.574 137.818V137.205C590.574 136.78 590.661 136.392 590.835 136.04C591.013 135.684 591.271 135.4 591.608 135.188C591.949 134.972 592.362 134.864 592.847 134.864C593.339 134.864 593.752 134.972 594.085 135.188C594.419 135.4 594.67 135.684 594.841 136.04C595.011 136.392 595.097 136.78 595.097 137.205V137.818C595.097 138.242 595.009 138.633 594.835 138.989C594.665 139.341 594.411 139.625 594.074 139.841C593.741 140.053 593.331 140.159 592.847 140.159C592.354 140.159 591.939 140.053 591.602 139.841C591.265 139.625 591.009 139.341 590.835 138.989C590.661 138.633 590.574 138.242 590.574 137.818ZM591.733 137.205V137.818C591.733 138.17 591.816 138.487 591.983 138.767C592.15 139.044 592.438 139.182 592.847 139.182C593.244 139.182 593.525 139.044 593.688 138.767C593.854 138.487 593.938 138.17 593.938 137.818V137.205C593.938 136.852 593.858 136.538 593.699 136.261C593.54 135.981 593.256 135.841 592.847 135.841C592.449 135.841 592.163 135.981 591.989 136.261C591.818 136.538 591.733 136.852 591.733 137.205ZM584.778 131.159V130.545C584.778 130.121 584.866 129.733 585.04 129.381C585.218 129.025 585.475 128.741 585.812 128.528C586.153 128.312 586.566 128.205 587.051 128.205C587.544 128.205 587.956 128.312 588.29 128.528C588.623 128.741 588.875 129.025 589.045 129.381C589.216 129.733 589.301 130.121 589.301 130.545V131.159C589.301 131.583 589.214 131.973 589.04 132.33C588.869 132.682 588.616 132.966 588.278 133.182C587.945 133.394 587.536 133.5 587.051 133.5C586.559 133.5 586.144 133.394 585.807 133.182C585.47 132.966 585.214 132.682 585.04 132.33C584.866 131.973 584.778 131.583 584.778 131.159ZM585.938 130.545V131.159C585.938 131.511 586.021 131.828 586.188 132.108C586.354 132.384 586.642 132.523 587.051 132.523C587.449 132.523 587.729 132.384 587.892 132.108C588.059 131.828 588.142 131.511 588.142 131.159V130.545C588.142 130.193 588.062 129.879 587.903 129.602C587.744 129.322 587.46 129.182 587.051 129.182C586.653 129.182 586.367 129.322 586.193 129.602C586.023 129.879 585.938 130.193 585.938 130.545ZM585.21 140L593.21 128.364H594.506L586.506 140H585.21ZM607.165 133.557V134.807H602.074V133.557H607.165ZM614.001 140V138.977L617.842 134.773C618.293 134.28 618.664 133.852 618.956 133.489C619.248 133.121 619.464 132.777 619.604 132.455C619.748 132.129 619.82 131.788 619.82 131.432C619.82 131.023 619.721 130.669 619.524 130.369C619.331 130.07 619.066 129.839 618.729 129.676C618.392 129.513 618.013 129.432 617.592 129.432C617.145 129.432 616.755 129.525 616.422 129.71C616.092 129.892 615.837 130.148 615.655 130.477C615.477 130.807 615.388 131.193 615.388 131.636H614.047C614.047 130.955 614.204 130.356 614.518 129.841C614.833 129.326 615.261 128.924 615.803 128.636C616.348 128.348 616.96 128.205 617.638 128.205C618.32 128.205 618.924 128.348 619.45 128.636C619.977 128.924 620.39 129.312 620.689 129.801C620.988 130.29 621.138 130.833 621.138 131.432C621.138 131.86 621.06 132.278 620.905 132.688C620.753 133.093 620.488 133.545 620.109 134.045C619.734 134.542 619.214 135.148 618.547 135.864L615.933 138.659V138.75H621.342V140H614.001ZM627.484 140.159C626.628 140.159 625.899 139.926 625.297 139.46C624.695 138.991 624.234 138.311 623.916 137.42C623.598 136.527 623.439 135.447 623.439 134.182C623.439 132.924 623.598 131.85 623.916 130.96C624.238 130.066 624.7 129.384 625.303 128.915C625.909 128.441 626.636 128.205 627.484 128.205C628.333 128.205 629.058 128.441 629.661 128.915C630.267 129.384 630.729 130.066 631.047 130.96C631.369 131.85 631.53 132.924 631.53 134.182C631.53 135.447 631.371 136.527 631.053 137.42C630.734 138.311 630.274 138.991 629.672 139.46C629.07 139.926 628.34 140.159 627.484 140.159ZM627.484 138.909C628.333 138.909 628.992 138.5 629.462 137.682C629.931 136.864 630.166 135.697 630.166 134.182C630.166 133.174 630.058 132.316 629.842 131.608C629.63 130.9 629.323 130.36 628.922 129.989C628.524 129.617 628.045 129.432 627.484 129.432C626.643 129.432 625.986 129.847 625.513 130.676C625.039 131.502 624.803 132.67 624.803 134.182C624.803 135.189 624.909 136.045 625.121 136.75C625.333 137.455 625.638 137.991 626.036 138.358C626.437 138.725 626.92 138.909 627.484 138.909ZM639.621 137.818V137.205C639.621 136.78 639.708 136.392 639.882 136.04C640.06 135.684 640.318 135.4 640.655 135.188C640.996 134.972 641.409 134.864 641.893 134.864C642.386 134.864 642.799 134.972 643.132 135.188C643.465 135.4 643.717 135.684 643.888 136.04C644.058 136.392 644.143 136.78 644.143 137.205V137.818C644.143 138.242 644.056 138.633 643.882 138.989C643.712 139.341 643.458 139.625 643.121 139.841C642.787 140.053 642.378 140.159 641.893 140.159C641.401 140.159 640.986 140.053 640.649 139.841C640.312 139.625 640.056 139.341 639.882 138.989C639.708 138.633 639.621 138.242 639.621 137.818ZM640.78 137.205V137.818C640.78 138.17 640.863 138.487 641.03 138.767C641.196 139.044 641.484 139.182 641.893 139.182C642.291 139.182 642.571 139.044 642.734 138.767C642.901 138.487 642.984 138.17 642.984 137.818V137.205C642.984 136.852 642.905 136.538 642.746 136.261C642.587 135.981 642.303 135.841 641.893 135.841C641.496 135.841 641.21 135.981 641.036 136.261C640.865 136.538 640.78 136.852 640.78 137.205ZM633.825 131.159V130.545C633.825 130.121 633.912 129.733 634.087 129.381C634.265 129.025 634.522 128.741 634.859 128.528C635.2 128.312 635.613 128.205 636.098 128.205C636.59 128.205 637.003 128.312 637.337 128.528C637.67 128.741 637.922 129.025 638.092 129.381C638.263 129.733 638.348 130.121 638.348 130.545V131.159C638.348 131.583 638.261 131.973 638.087 132.33C637.916 132.682 637.662 132.966 637.325 133.182C636.992 133.394 636.583 133.5 636.098 133.5C635.606 133.5 635.191 133.394 634.854 133.182C634.517 132.966 634.261 132.682 634.087 132.33C633.912 131.973 633.825 131.583 633.825 131.159ZM634.984 130.545V131.159C634.984 131.511 635.068 131.828 635.234 132.108C635.401 132.384 635.689 132.523 636.098 132.523C636.496 132.523 636.776 132.384 636.939 132.108C637.106 131.828 637.189 131.511 637.189 131.159V130.545C637.189 130.193 637.109 129.879 636.95 129.602C636.791 129.322 636.507 129.182 636.098 129.182C635.7 129.182 635.414 129.322 635.24 129.602C635.07 129.879 634.984 130.193 634.984 130.545ZM634.257 140L642.257 128.364H643.553L635.553 140H634.257Z" fill="black"/>
<rect width="115" height="115" transform="translate(691 1)" fill="#FDFBFF"/>
<path d="M701.636 128.364V140H700.273L693.932 130.864H693.818V140H692.409V128.364H693.773L700.136 137.523H700.25V128.364H701.636ZM707.82 140.182C707.032 140.182 706.34 139.994 705.746 139.619C705.155 139.244 704.693 138.72 704.359 138.045C704.03 137.371 703.865 136.583 703.865 135.682C703.865 134.773 704.03 133.979 704.359 133.301C704.693 132.623 705.155 132.097 705.746 131.722C706.34 131.347 707.032 131.159 707.82 131.159C708.607 131.159 709.297 131.347 709.888 131.722C710.482 132.097 710.945 132.623 711.274 133.301C711.607 133.979 711.774 134.773 711.774 135.682C711.774 136.583 711.607 137.371 711.274 138.045C710.945 138.72 710.482 139.244 709.888 139.619C709.297 139.994 708.607 140.182 707.82 140.182ZM707.82 138.977C708.418 138.977 708.911 138.824 709.297 138.517C709.683 138.21 709.969 137.807 710.155 137.307C710.34 136.807 710.433 136.265 710.433 135.682C710.433 135.098 710.34 134.555 710.155 134.051C709.969 133.547 709.683 133.14 709.297 132.83C708.911 132.519 708.418 132.364 707.82 132.364C707.221 132.364 706.729 132.519 706.342 132.83C705.956 133.14 705.67 133.547 705.484 134.051C705.299 134.555 705.206 135.098 705.206 135.682C705.206 136.265 705.299 136.807 705.484 137.307C705.67 137.807 705.956 138.21 706.342 138.517C706.729 138.824 707.221 138.977 707.82 138.977ZM715.162 134.75V140H713.821V131.273H715.116V132.636H715.23C715.435 132.193 715.745 131.837 716.162 131.568C716.579 131.295 717.116 131.159 717.776 131.159C718.366 131.159 718.884 131.28 719.327 131.523C719.77 131.761 720.115 132.125 720.361 132.614C720.607 133.098 720.73 133.712 720.73 134.455V140H719.389V134.545C719.389 133.86 719.211 133.326 718.855 132.943C718.499 132.557 718.01 132.364 717.389 132.364C716.961 132.364 716.579 132.456 716.241 132.642C715.908 132.828 715.645 133.098 715.452 133.455C715.259 133.811 715.162 134.242 715.162 134.75ZM726.839 140.182C725.999 140.182 725.273 139.996 724.663 139.625C724.057 139.25 723.589 138.727 723.26 138.057C722.934 137.383 722.771 136.598 722.771 135.705C722.771 134.811 722.934 134.023 723.26 133.341C723.589 132.655 724.048 132.121 724.635 131.739C725.226 131.352 725.915 131.159 726.703 131.159C727.158 131.159 727.607 131.235 728.05 131.386C728.493 131.538 728.896 131.784 729.26 132.125C729.624 132.462 729.913 132.909 730.129 133.466C730.345 134.023 730.453 134.708 730.453 135.523V136.091H723.726V134.932H729.089C729.089 134.439 728.991 134 728.794 133.614C728.601 133.227 728.324 132.922 727.964 132.699C727.608 132.475 727.188 132.364 726.703 132.364C726.169 132.364 725.707 132.496 725.317 132.761C724.93 133.023 724.633 133.364 724.425 133.784C724.216 134.205 724.112 134.655 724.112 135.136V135.909C724.112 136.568 724.226 137.127 724.453 137.585C724.684 138.04 725.004 138.386 725.413 138.625C725.822 138.86 726.298 138.977 726.839 138.977C727.192 138.977 727.51 138.928 727.794 138.83C728.082 138.727 728.33 138.576 728.538 138.375C728.747 138.17 728.908 137.917 729.021 137.614L730.317 137.977C730.18 138.417 729.951 138.803 729.629 139.136C729.307 139.466 728.91 139.723 728.436 139.909C727.963 140.091 727.43 140.182 726.839 140.182Z" fill="black"/>
<rect x="0.5" y="0.5" width="806" height="148" stroke="black"/>
</svg>
